# xmcd
#
# Track frame offsets: 
#        150
#        18100
#        29557
#        43275
#        56400
#        76478
#        89836
#        112405
#        125835
#        144091
#        165065
#        175276
#        191700
#        206113
#        219179
#        243932
#        257070
#        275347
#        305475
#        318788
#        342223
#
# Disc length: 4723 seconds
#
# Revision: 0
# Processed by: cddbd v1.5.1PL0 Copyright (c) Steve Scherf et al.
# Submitted via: ExactAudioCopy v0.95a5
#
DISCID=30127115
DTITLE=Mary Coughlan - Mary Coughlan Sings Billie Holiday
DYEAR=1900
DGENRE=
TTITLE0=These Foolish Things
TTITLE1=All Of Me
TTITLE2=They Can't Take That Away
TTITLE3=Miss Brown To You
TTITLE4=God Bless The Child
TTITLE5=Fine And Mellow
TTITLE6=Don't Explain
TTITLE7=Nice Work If You Can Get It
TTITLE8=I Cover The Waterfront
TTITLE9=Good Morning Heartache
TTITLE10=Strange Fruit
TTITLE11=Porgy
TTITLE12=Until The Real Thing Comes Along
TTITLE13=Billie's Blues
TTITLE14=Love For Sale
TTITLE15=Them There Eyes
TTITLE16=You'll Be There
TTITLE17=You've Changed
TTITLE18=For All We Know
TTITLE19=T'aint Nobody's Business If I Do
TTITLE20=I'll Be Seeing You
EXTD=Discs 1 and 2 Combined\n\n\n
EXTT0=
EXTT1=
EXTT2=
EXTT3=
EXTT4=
EXTT5=
EXTT6=
EXTT7=
EXTT8=
EXTT9=
EXTT10=
EXTT11=
EXTT12=
EXTT13=
EXTT14=
EXTT15=
EXTT16=
EXTT17=
EXTT18=
EXTT19=
EXTT20=
PLAYORDER=
